<?xml version="1.0" encoding="UTF-8"?>
<svg width="1500" height="350" version="1.1" viewBox="0 0 396.87499 92.604164" xmlns="http://www.w3.org/2000/svg" xmlns:cc="http://creativecommons.org/ns#" xmlns:dc="http://purl.org/dc/elements/1.1/" xmlns:rdf="http://www.w3.org/1999/02/22-rdf-syntax-ns#">
   <g transform="translate(552.69 25.689)">
      <path transform="translate(-725.68 78.726)" d="m174.51-101.97v14.99c5.0688-0.43139 8.6267-0.75391 13.156-0.75391h56.189c-2.804 5.2845-11.216 14.774-19.844 20.059l11.107 8.9531c10.677-7.5493 20.921-21.139 25.99-29.551 0.97063-1.6177 3.0207-4.2074 4.207-5.6094l-8.627-7.9805c-1.9412 0.64709-7.8728 0.97071-10.893 0.97071h-58.131c-4.5296 0-9.058-0.43104-13.156-1.0781zm183.12 0.53125-13.164 3.1602v77.41h13.164v-18.852l6.3203-6.6895 16.588 25.541h15.639l-22.959-35.02 19.062-21.379h-15.85l-18.801 21.643zm105.41 2.3184c-2.1064 0-3.9142 0.75409-5.4238 2.2637-1.4745 1.4745-2.2109 3.2647-2.2109 5.3711s0.73646 3.9142 2.2109 5.4238c1.5096 1.4745 3.3174 2.2129 5.4238 2.2129 2.1064 0 3.8986-0.73841 5.373-2.2129 1.5096-1.5096 2.2637-3.3174 2.2637-5.4238s-0.7541-3.8966-2.2637-5.3711c-1.4745-1.5096-3.2666-2.2637-5.373-2.2637zm-161.85 0.05273-30.752 78.199h15.219l5.3711-15.641h26.436l5.6328 15.641h15.113l-31.016-78.199zm-95.508 19.746c0.53923 3.4511 0.75391 6.3638 0.75391 9.707 0 17.687-2.5885 29.119-16.285 38.609-3.9904 2.9119-7.8731 4.7434-11.324 5.9297l12.512 10.246c29.442-15.746 29.98-37.746 29.98-64.492zm216.35 1.002c-6.249 0-11.637 1.0871-16.166 3.2637l2.8438 10.217c3.3351-1.65 7.4777-2.4746 12.428-2.4746 8.3905 0 12.586 3.316 12.586 9.9512-2.1064-0.5266-3.9319-0.78906-5.4766-0.78906-9.0224 0-15.991 1.8431-20.906 5.5293-4.8798 3.6862-7.3203 8.7944-7.3203 15.324 1e-5 5.5819 1.7374 9.9008 5.2129 12.955 3.4756 3.0192 8.2508 4.5273 14.324 4.5273 3.2298-2e-6 6.3186-0.61307 9.2676-1.8418 2.9841-1.2638 5.074-2.8797 6.2676-4.8457 0.5266 1.65 1.5432 3.1778 3.0527 4.582 1.5096 1.4043 3.2136 2.1055 5.1094 2.1055 1.7202 0 3.246-0.22721 4.5801-0.68359 1.334-0.42128 2.5465-1.5808 3.6348-3.4766-3.0192-1.9309-4.5293-6.6532-4.5293-14.166v-12.059c0-10.918-2.0018-18.326-6.0039-22.223-4.0022-3.9319-10.303-5.8965-18.904-5.8965zm84.402 0c-6.1085 0-11.005 2.0703-14.691 6.2129v-5.1602h-13.164v56.398h13.164v-32.123c0-4.0021 1.1772-7.3887 3.5293-10.162 2.3872-2.7734 5.1078-4.1602 8.1621-4.1602 2.8085 0 5.3881 0.77172 7.7402 2.3164l5.582-11.27c-2.3872-1.3692-5.8286-2.0527-10.322-2.0527zm34.277 0c-8.1447 0-14.71 2.703-19.695 8.1094-4.95 5.4064-7.4238 12.411-7.4238 21.012 0 8.882 2.368 16.008 7.1074 21.379 4.7745 5.3362 11.446 8.0039 20.012 8.0039 8.3905-2e-6 14.991-2.6501 19.801-7.9512 4.8447-5.3011 7.2656-12.444 7.2656-21.432 0-9.0224-2.37-16.132-7.1094-21.328-4.7394-5.1958-11.391-7.793-19.957-7.793zm-91.678 1.0527v10.795h7.2129v45.604h13.324v-56.398zm-144.84 1.791 9.2676 28.488h-18.535zm236.52 7.8984c8.9171 0 13.375 6.1267 13.375 18.379 0 5.9681-1.2105 10.567-3.6328 13.797-2.3872 3.2298-5.6347 4.8438-9.7422 4.8438-8.9522 0-13.428-6.2129-13.428-18.641 0-5.7926 1.2105-10.305 3.6328-13.535s5.6874-4.8438 9.7949-4.8438zm-111.94 19.484c1.1234 0 2.8098 0.22721 5.0566 0.68359v5.2656c0 7.899-3.9506 11.85-11.85 11.85-5.8628 0-8.793-2.5286-8.793-7.584 0-6.8107 5.1944-10.215 15.586-10.215z" fill="#87202f"/>
   </g>
</svg>
